<svg xmlns="http://www.w3.org/2000/svg" xmlns:xlink="http://www.w3.org/1999/xlink" width="38" height="38" viewBox="0 0 38 38">
  <defs>
    <rect id="rect-1" width="38" height="38" x="0" y="0"/>
    <mask id="mask-2" maskContentUnits="userSpaceOnUse" maskUnits="userSpaceOnUse">
      <rect width="38" height="38" x="0" y="0" fill="black"/>
      <use fill="white" xlink:href="#rect-1"/>
    </mask>
  </defs>
  <g>
    <use fill="none" xlink:href="#rect-1"/>
    <g mask="url(#mask-2)">
      <ellipse cx="19" cy="19" fill="rgb(88,101,242)" rx="19" ry="19"/>
      <path fill="rgb(255,255,255)" fill-rule="evenodd" d="M25.58432007 12.95117188c-1.23187256-.56539917-2.53192139-.96855546-3.86755371-1.19937516-.02493286-.00475311-.05010987.00708008-.06234741.02931595-.17733765.32145691-.3383484.6516571-.48242188.9893341-1.43963623-.21863555-2.90402222-.21863555-4.34365845 0-.14471435-.33851623-.3079834-.66880035-.4890747-.9893341-.01272583-.0217247-.0375061-.0333786-.06234742-.02931595-1.3352661.23044968-2.63482666.63362503-3.86605835 1.19937516-.01062011.00445556-.01956176.01211547-.02560424.02189636-2.46295166 3.68013763-3.13760376 7.26972961-2.8065796 10.81404114.0018921.017601.01086426.03366851.02484131.04453277 1.43423462 1.06241608 3.0385437 1.87342072 4.7444458 2.39837647.0246582.00737.05130005-.00135804.06680298-.02188874.36627198-.49865722.69085694-1.0266571.97039795-1.57863617.00772095-.01531982.0085144-.03320312.00222779-.04915619-.00631714-.01594543-.01913452-.02844238-.0352478-.0343399-.51190186-.1955185-1.00747681-.43128204-1.48214722-.70507813-.01748658-.01029205-.02871704-.02862548-.02990723-.04888153-.00119018-.02026367.0078125-.03978729.0239563-.05205536.09945679-.07421875.19927978-.15215301.294281-.2308197.01721192-.014122.04092408-.0172882.06124878-.00816345 3.109375 1.4197998 6.47595215 1.4197998 9.5486145 0 .02044678-.00980377.04473878-.00691223.06234742.0074234.0949707.07829285.19482422.15696716.296875.23155975.01623535.01215363.02532959.03159333.024292.051857-.0010376.02024841-.01211549.03865814-.0295105.0490799-.47402955.27643585-.97058106.5123062-1.484375.70507812-.01620484.00610352-.0289917.01885986-.03518677.0350418-.00616456.01617433-.00509644.03421784.00289917.04956818.28424072.54895783.60830688 1.07633973.96966552 1.5778885.01504517.02118682.04199219.0303192.06680298.0226364 1.70825195-.52342986 3.31463623-1.33452605 4.75-2.39837646.0142212-.01032257.02328491-.0262909.02487183-.04379272.39633178-4.09835816-.66351319-7.65863037-2.80917359-10.81441498-.00479126-.01029968-.01309204-.01857758-.02337646-.02337647zm-9.73529053 8.67803192c-.9362793 0-1.70703125-.8594513-1.70703125-1.91484833 0-1.0553894.75628662-1.9148407 1.70703125-1.9148407.95852661 0 1.72262573.8668747 1.70703125 1.9148407.00073242 1.05539703-.7559204 1.91484833-1.70703125 1.91484833zm4.6064148-1.91484833c0 1.05539703.77075195 1.91484833 1.70703125 1.91484833.9585266 0 1.70739746-.8594513 1.70703125-1.91484833.01559448-1.047966-.74850464-1.9148407-1.70703125-1.9148407-.95074463 0-1.70703125.8594513-1.70703125 1.9148407z"/>
    </g>
  </g>
</svg>
