<svg width="200" height="200" viewBox="0 0 200 200" fill="none" xmlns="http://www.w3.org/2000/svg">
<rect x="16" y="32" width="167" height="145" fill="white"/>
<path fill-rule="evenodd" clip-rule="evenodd" d="M200 200H0V0H200V200ZM166.417 152.925V150.683L156.025 140.483C155.108 139.783 154.65 138.633 154.842 137.492V62.5083C154.65 61.3667 155.108 60.2167 156.025 59.5167L166.667 49.3167V47.075H129.817L103.55 112.6L73.6667 47.075H35.0167V49.3167L47.4667 64.3083C48.6833 65.4167 49.3083 67.0333 49.1417 68.6667V127.6C49.5083 129.725 48.8333 131.9 47.3417 133.45L33.3333 150.433V152.675H73.05V150.433L59.0417 133.45C57.5333 131.9 56.825 129.742 57.1083 127.6V76.6333L91.9667 152.675H96.0167L125.958 76.6333V137.242C125.958 138.858 125.958 139.175 124.9 140.233L114.133 150.683V152.925H166.417V152.925Z" fill="black"/>
</svg>
