<svg width="200" height="200" viewBox="0 0 200 200" fill="none" xmlns="http://www.w3.org/2000/svg">
<circle cx="101" cy="100" r="81" fill="white"/>
<path d="M100 0C44.775 0 0 44.775 0 100C0 155.225 44.775 200 100 200C155.225 200 200 155.225 200 100C200 44.775 155.225 0 100 0ZM150.55 80.375C152.075 114.042 126.967 151.575 82.5167 151.575C69 151.575 56.425 147.608 45.8333 140.817C58.5333 142.317 71.2083 138.783 81.2667 130.908C70.8 130.717 61.9583 123.792 58.9 114.283C62.6583 115 66.3583 114.792 69.7167 113.875C58.2083 111.558 50.2583 101.192 50.5167 90.1C53.75 91.8917 57.4333 92.9667 61.3583 93.0917C50.7 85.9667 47.6833 71.8917 53.95 61.1333C65.75 75.6167 83.3917 85.1417 103.283 86.1417C99.7917 71.175 111.15 56.75 126.608 56.75C133.483 56.75 139.708 59.6583 144.075 64.3083C149.525 63.2417 154.658 61.2417 159.275 58.5C157.483 64.0917 153.692 68.775 148.75 71.7417C153.592 71.1583 158.208 69.875 162.492 67.9667C159.292 72.7833 155.242 77 150.55 80.375V80.375Z" fill="#11C1FF"/>
</svg>
