<svg width="176" height="200" viewBox="0 0 176 200" fill="none" xmlns="http://www.w3.org/2000/svg">
<rect x="24" y="31" width="129" height="112" fill="white"/>
<path d="M106.8 84.1001C101.1 84.1001 96.6 89.0001 96.6 95.1001C96.6 101.2 101.2 106.1 106.8 106.1C112.5 106.1 117 101.2 117 95.1001C117 89.0001 112.4 84.1001 106.8 84.1001ZM70.3 84.1001C64.6 84.1001 60.1 89.0001 60.1 95.1001C60.1 101.2 64.7 106.1 70.3 106.1C76 106.1 80.5 101.2 80.5 95.1001C80.6 89.0001 76 84.1001 70.3 84.1001Z" fill="#7289DA"/>
<path d="M155.4 0.900024H21.4C10.1 0.900024 0.899994 10.1 0.899994 21.4V155.4C0.899994 166.7 10.1 175.9 21.4 175.9H134.8L129.5 157.6L142.3 169.4L154.4 180.5L176 199.2V21.4C175.9 10.1 166.7 0.900024 155.4 0.900024ZM116.8 130.4C116.8 130.4 113.2 126.1 110.2 122.4C123.3 118.7 128.3 110.6 128.3 110.6C124.2 113.3 120.3 115.2 116.8 116.5C111.8 118.6 107 119.9 102.3 120.8C92.7 122.6 83.9 122.1 76.4 120.7C70.7 119.6 65.8 118.1 61.7 116.4C59.4 115.5 56.9 114.4 54.4 113C54.1 112.8 53.8 112.7 53.5 112.5C53.3 112.4 53.2 112.3 53.1 112.3C51.3 111.3 50.3 110.6 50.3 110.6C50.3 110.6 55.1 118.5 67.8 122.3C64.8 126.1 61.1 130.5 61.1 130.5C39 129.8 30.6 115.4 30.6 115.4C30.6 83.5 45 57.6 45 57.6C59.4 46.9 73 47.2 73 47.2L74 48.4C56 53.5 47.8 61.4 47.8 61.4C47.8 61.4 50 60.2 53.7 58.6C64.4 53.9 72.9 52.7 76.4 52.3C77 52.2 77.5 52.1 78.1 52.1C84.2 51.3 91.1 51.1 98.3 51.9C107.8 53 118 55.8 128.4 61.4C128.4 61.4 120.5 53.9 103.5 48.8L104.9 47.2C104.9 47.2 118.6 46.9 132.9 57.6C132.9 57.6 147.3 83.5 147.3 115.4C147.3 115.3 138.9 129.7 116.8 130.4Z" fill="#7289DA"/>
</svg>
