<?xml version="1.0" encoding="UTF-8"?>
<svg id="Layer_1" data-name="Layer 1" xmlns="http://www.w3.org/2000/svg" viewBox="0 0 589.79 100.47">
  <defs>
    <style>
      .cls-1 {
        fill: #3dbdb5;
      }
    </style>
  </defs>
  <g>
    <rect class="cls-1" x="10.12" y="67.55" width="7.12" height="35.09" rx="2.99" ry="2.99" transform="translate(-56.16 34.6) rotate(-45)"/>
    <rect class="cls-1" x="30.98" y="66.67" width="7.12" height="35.09" rx="2.99" ry="2.99" transform="translate(-49.43 49.09) rotate(-45)"/>
    <rect class="cls-1" x="74.78" y="49.23" width="7.12" height="35.09" rx="2.99" ry="2.99" transform="translate(86.53 169.39) rotate(-135)"/>
    <rect class="cls-1" x="43.29" y="41.19" width="7.12" height="67.95" rx="2.99" ry="2.99" transform="translate(-39.43 55.14) rotate(-45)"/>
    <rect class="cls-1" x="11.01" y="45.64" width="7.12" height="37.59" rx="2.99" ry="2.99" transform="translate(-20.69 120.3) rotate(-135)"/>
    <rect class="cls-1" x="56.53" y="73.15" width="63.57" height="7.13" rx="3.56" ry="3.56" transform="translate(-28.38 84.91) rotate(-45)"/>
    <rect class="cls-1" x="106.4" y="-2.17" width="7.12" height="35.09" rx="2.99" ry="2.99" transform="translate(198.59 -51.51) rotate(135)"/>
    <rect class="cls-1" x="85.54" y="-1.29" width="7.12" height="35.09" rx="2.99" ry="2.99" transform="translate(163.61 -35.26) rotate(135)"/>
    <rect class="cls-1" x="41.85" y="16.26" width="7.12" height="35.09" rx="2.99" ry="2.99" transform="translate(53.61 89.82) rotate(-135)"/>
    <rect class="cls-1" x="73.24" y="-8.67" width="7.12" height="67.95" rx="2.99" ry="2.99" transform="translate(149 -11.11) rotate(135)"/>
    <rect class="cls-1" x="105.52" y="17.24" width="7.12" height="37.59" rx="2.99" ry="2.99" transform="translate(57.43 -66.58) rotate(45)"/>
    <rect class="cls-1" x="3.56" y="20.19" width="63.57" height="7.13" rx="3.56" ry="3.56" transform="translate(-6.44 31.95) rotate(-45)"/>
  </g>
  <g>
    <polygon class="cls-1" points="166.81 81.33 166.81 17.87 166.81 17.87 180.22 17.87 180.22 17.87 212.32 64.56 212.32 64.56 212.23 17.87 212.23 17.87 223.56 17.87 223.56 17.87 223.56 81.33 223.56 81.33 210.14 81.33 210.14 81.33 178.05 34.64 178.05 34.64 178.14 81.33 178.14 81.33 166.81 81.33 166.81 81.33"/>
    <path class="cls-1" d="M278.86,58.39c0-14.59-9.97-25.02-24.02-25.02-16.18,0-27.67,15.54-23.4,31.1,3.14,11.41,14.17,18.6,25.99,18,8.01-.4,14.54-4.05,18.98-10.12,0,0,0,0,0,0l-8.25-6.16s0,0,0,0c-3.44,4.44-7.34,6.16-12.33,6.16-6.53,0-11.6-4.44-13.14-10.52,0,0,0,0,0,0h36.17s0,0,0,0v-3.45Zm-35.99-5.62s0,0,0,0c1.63-5.71,6.16-9.25,11.69-9.25s10.61,3.44,12.33,9.25c0,0,0,0,0,0h-24.02Z"/>
    <path class="cls-1" d="M284.74,22.9c-.03-4.39,4.12-7.54,8.73-6.3,1.86,.5,3.81,2.51,4.28,4.38,1.15,4.65-2.08,8.63-6.52,8.49-3.53-.11-6.46-3.04-6.49-6.57Z"/>
    <polygon class="cls-1" points="297.35 81.33 285.47 81.33 285.47 81.33 285.47 34.46 285.47 34.46 297.35 34.46 297.35 34.46 297.35 81.33 297.35 81.33"/>
    <path class="cls-1" d="M343.31,34.46v4.08s0,0,0,0c-4.08-3.35-9.25-5.35-14.78-5.35-13.6,0-24.66,10.79-24.66,24.29s10.97,24.3,24.66,24.3c5.53,0,10.61-1.99,14.69-5.26,0,0,0,0,0,0v5.71c0,5.26-2.9,8.16-8.52,8.16h-10.42s0,0,0,0v9.97s0,0,0,0h13.14c10.7,0,17.68-6.89,17.68-17.22V34.46s0,0,0,0h-11.78s0,0,0,0Zm-13.78,36.9c-7.71,0-13.87-6.16-13.87-13.88s6.25-13.96,13.87-13.96,13.87,6.16,13.87,13.96-6.07,13.88-13.87,13.88Z"/>
    <path class="cls-1" d="M375.12,81.33h-11.88s0,0,0,0V17.87s0,0,0,0h11.88s0,0,0,0v20.67s0,0,0,0c3.26-3.44,7.89-5.35,13.05-5.35,10.88,0,18.31,8.07,18.31,18.31v29.83s0,0,0,0h-11.88s0,0,0,0v-27.47c0-6.07-3.9-10.06-9.7-10.06s-9.79,3.81-9.79,10.06v27.47s0,0,0,0Z"/>
    <path class="cls-1" d="M441.58,33.28c-5.72,0-10.89,2.08-15.06,5.53,0,0,0,0,0,0V17.87s0,0,0,0h-11.88s0,0,0,0v63.47s0,0,0,0h11.78s0,0,0,0v-4.35s0,0,0,0c4.18,3.54,9.43,5.62,15.15,5.62,13.96,0,25.02-11.15,25.02-24.67s-11.06-24.66-25.02-24.66Zm-3.24,38.81c-6.51-1.02-11.54-6.58-11.97-13.16-.56-8.45,5.99-15.23,14.21-15.23,7.8,0,14.23,6.25,14.23,14.23,0,8.64-7.71,15.53-16.47,14.16Z"/>
    <polygon class="cls-1" points="473.12 81.33 473.12 17.87 473.12 17.87 484.99 17.87 484.99 17.87 484.99 81.33 484.99 81.33 473.12 81.33 473.12 81.33"/>
    <path class="cls-1" d="M517.26,33.28c-14.14,0-25.75,11.06-25.75,24.66s11.6,24.67,25.75,24.67,25.75-11.06,25.75-24.67-11.52-24.66-25.75-24.66Zm0,38.81c-7.71,0-13.96-6.25-13.96-14.15s6.25-14.14,13.96-14.14,13.97,6.25,13.97,14.14-6.17,14.15-13.97,14.15Z"/>
    <polygon class="cls-1" points="558.69 57.31 541.38 34.46 554.88 34.46 565.13 48.6 575.37 34.46 588.43 34.46 571.38 57.03 589.79 81.33 576.28 81.33 564.95 65.65 553.52 81.33 540.47 81.33 558.69 57.31"/>
  </g>
</svg>