<svg xmlns="http://www.w3.org/2000/svg" xmlns:xlink="http://www.w3.org/1999/xlink" width="50" height="50" viewBox="0 0 50 50">
  <defs>
    <rect id="rect-1" width="50" height="50" x="0" y="0"/>
    <mask id="mask-2" maskContentUnits="userSpaceOnUse" maskUnits="userSpaceOnUse">
      <rect width="50" height="50" x="0" y="0" fill="black"/>
      <use fill="white" xlink:href="#rect-1"/>
    </mask>
  </defs>
  <g>
    <use fill="none" xlink:href="#rect-1"/>
    <g mask="url(#mask-2)">
      <path fill="rgb(255,255,255)" fill-rule="evenodd" d="M26.71875 5.15625l-.9375-1.25V9.375h-1.5625V3.90625l-.9375 1.25-1.25-.9375 2.34375-3.125c.15374756-.18688965.38302612-.29516602.625-.29516602.24197388 0 .47125244.10827637.625.29516602l2.34375 3.125-1.25.9375zm-12.21484375 8.2421875L6.21718597 5.11242676l1.546875.2211914.22109223-1.546875L4.1179695 3.234375c-.2433281-.03466797-.48878097.04724121-.66257477.22094727-.1737976.17382812-.25567245.41931152-.22101974.66259765l.55234528 3.868042 1.546875-.22192383-.22109604-1.546875 8.28671646 8.28588867 1.10469055-1.10461426zM46.765625 4.11791992l-.55234528 3.868042-1.546875-.22192383.22109223-1.546875-8.28671265 8.28588867-1.10469055-1.10461426 8.28672028-8.28601074-1.546875.2211914-.22109223-1.546875 3.8671875-.55236816c.24332428-.03466797.48877716.04724121.66257477.22094727.17378998.17382812.25566864.41931152.22101593.66259765zM19.0703125 17.32507324c1.17655945-3.43054199 3.1164093-5.77893066 5.34375-6.13439941v6.53979492c-1.7882309-.01745605-3.57335663-.15283203-5.34375-.4053955zm11.8601532.00622559c-1.77091217.24987793-3.55617523.38452148-5.3445282.40307617v-6.53979492c2.22812653.35546875 4.16796875 2.70471191 5.3445282 6.13671875zm-16.64453125-1.118042c1.75644684-2.1364746 4.11055755-3.70007324 6.76094055-4.49060058-1.46224213 1.53015137-2.54001617 3.38574219-3.14453125 5.4140625-1.22734833-.21472168-2.43637848-.5234375-3.6164093-.92346191zm17.8117218.9227295c-.60440826-2.02819824-1.6822052-3.88354492-3.14453125-5.41333008 2.650177.79052734 5.00421906 2.35388184 6.76094055 4.48986816-1.1796341.4013672-2.38876343.71008301-3.6164093.92346192zm6.7570343 7.27807617c-.10694122-2.58691406-.94032287-5.0913086-2.4046936-7.2265625-1.3042221.4720459-2.64668274.83093262-4.01249695 1.07263184.52953339 2.00952148.81285858 4.0760498.84375 6.15393066h5.57344055zm-22.13594055 0c.03105164-2.07641602.31437683-4.14123535.84375-6.149292-1.36569977-.2434082-2.70827484-.60217284-4.01328278-1.07263183-1.46368408 2.13378906-2.29679107 4.63659668-2.40390777 7.22192383H16.71875zm14.56093597-5.95385742c-1.88578033.2755127-3.78803253.42333984-5.69374847.44213867v5.51171875h6.5234375c-.03154755-2.0111084-.31019592-4.01074219-.82968903-5.95385742zM24.4140625 18.90625c-1.90583801-.01818848-3.80819702-.16662598-5.69374847-.44458008-.5187912 1.94274903-.79743195 3.94177246-.82968903 5.95239258h6.5234375V18.90625zM3.90625 25.78125l1.25.9375-.9375 1.25-3.125-2.34375c-.19672394-.147583-.3125-.3791504-.3125-.625s.11577606-.477417.3125-.625l3.125-2.34375.9375 1.25-1.25.9375H9.375v1.5625H3.90625zm41.875-3.75l-.9375 1.25 1.25.9375H40.625v1.5625h5.46875l-1.25.9375.9375 1.25 3.125-2.34375c.19672394-.147583.3125-.3791504.3125-.625s-.11577606-.477417-.3125-.625l-3.125-2.34375zM17.5625 31.73596191c-.52934265-2.00830078-.81266785-4.07336425-.84375-6.15002441h-5.57344055c.10749054 2.58483887.9402771 5.08728027 2.40312195 7.22106934 1.30490112-.47119141 2.64785766-.82958985 4.0140686-1.07104493zm6.8515625-.63671875c-1.90566254.01879883-3.80789185.16589356-5.69374847.44055176-.5194931-1.94311523-.79814148-3.94274902-.82968903-5.95385742h6.5234375v5.51330566zm7.421875-5.51330566c-3.45178223 0-6.25 2.79821777-6.25 6.25s2.79821777 6.25 6.25 6.25 6.25-2.79821777 6.25-6.25c-.00387573-3.45019531-2.79982758-6.24609375-6.25-6.25zm-1.5625 3.90625c0 .86291504.69955444 1.5625 1.5625 1.5625h-1.171875c-.86294556 0-1.5625.69958496-1.5625 1.5625v3.01794434c1.6305008 1.1845703 3.8382492 1.1845703 5.46875 0V32.6171875c0-.86291504-.69955444-1.5625-1.5625-1.5625h-1.171875c.86294556 0 1.5625-.69958496 1.5625-1.5625s-.69955444-1.5625-1.5625-1.5625-1.5625.69958496-1.5625 1.5625zm-5.859375 2.77893066c-1.78829956.0185547-3.5735321.1525879-5.3445282.40161133 1.17655945 3.43200684 3.1164093 5.78125 5.3445282 6.13671875v-6.53833008zM21.046875 38.28125c-2.65119934-.79174805-5.00564575-2.35705566-6.76171875-4.49536133 1.18010712-.39941406 2.3894806-.70666504 3.6171875-.91870117.60451508 2.02832031 1.68228912 3.88391113 3.14453125 5.4140625zm-7.6476593-2.78442383l-8.28671646 8.28588867.22109604-1.546875-1.546875-.22180175L3.234375 45.881958c-.0319252.2241211.03496933.45117187.18335342.62219238.1483841.1710205.36366654.26928711.59008408.26928711.03686142.00012207.07368088-.00256348.11015701-.0078125l3.86718369-.55236816-.22109223-1.546875-1.546875.22106933 8.28672028-8.28588867-1.10469055-1.10473633zm31.48828888 8.28601074l-.22109986-1.546875 1.546875-.22192382.55234528 3.86804199c.03192902.2241211-.03496552.45117187-.1833496.62207031-.1483841.1710205-.36367036.26928711-.5900879.26928711-.0368576.00012207-.07367706-.0024414-.1101532-.0078125l-3.8671875-.55236816.22109223-1.546875 1.546875.2211914-6.62890625-6.62890625 1.10469055-1.10473633 6.62890625 6.62890625zM25.78125 40.625v5.46875l.9375-1.25 1.25.9375-2.34375 3.125c-.14754486.19677734-.37909698.3125-.625.3125-.24590302 0-.47745514-.11572266-.625-.3125l-2.34375-3.125 1.25-.9375.9375 1.25V40.625h1.5625z"/>
    </g>
  </g>
</svg>
