<?xml version="1.0" encoding="UTF-8"?>
<svg id="Layer_1" data-name="Layer 1" xmlns="http://www.w3.org/2000/svg" viewBox="0 0 411 411">
  <defs>
    <style>
      .cls-1 {
        fill: #fff;
      }

      .cls-2 {
        fill: #00cdbe;
      }
    </style>
  </defs>
  <circle class="cls-2" cx="205.5" cy="205.5" r="205.5"/>
  <g>
    <rect class="cls-1" x="89.95" y="244.19" width="15.92" height="78.43" rx="7.96" ry="7.96" transform="translate(-171.72 152.24) rotate(-45)"/>
    <rect class="cls-1" x="136.56" y="242.23" width="15.92" height="78.43" rx="7.96" ry="7.96" transform="translate(-156.68 184.63) rotate(-45)"/>
    <rect class="cls-1" x="234.46" y="203.25" width="15.92" height="78.43" rx="7.96" ry="7.96" transform="translate(242.39 585.32) rotate(-135)"/>
    <rect class="cls-1" x="164.06" y="185.29" width="15.92" height="151.87" rx="7.96" ry="7.96" transform="translate(-134.33 198.15) rotate(-45)"/>
    <rect class="cls-1" x="91.93" y="195.22" width="15.92" height="84.02" rx="7.96" ry="7.96" transform="translate(2.77 475.61) rotate(-135)"/>
    <rect class="cls-1" x="193.66" y="256.72" width="142.07" height="15.93" rx="7.96" ry="7.96" transform="translate(-109.64 264.69) rotate(-45)"/>
    <rect class="cls-1" x="305.13" y="88.38" width="15.92" height="78.43" rx="7.96" ry="7.96" transform="translate(624.7 -3.57) rotate(135)"/>
    <rect class="cls-1" x="258.51" y="90.34" width="15.92" height="78.43" rx="7.96" ry="7.96" transform="translate(546.51 32.73) rotate(135)"/>
    <rect class="cls-1" x="160.85" y="129.57" width="15.92" height="78.43" rx="7.96" ry="7.96" transform="translate(168.83 407.5) rotate(-135)"/>
    <rect class="cls-1" x="231.01" y="73.84" width="15.92" height="151.87" rx="7.96" ry="7.96" transform="translate(513.86 86.71) rotate(135)"/>
    <rect class="cls-1" x="303.15" y="131.76" width="15.92" height="84.02" rx="7.96" ry="7.96" transform="translate(213.99 -169.09) rotate(45)"/>
    <rect class="cls-1" x="75.28" y="138.35" width="142.07" height="15.93" rx="7.96" ry="7.96" transform="translate(-60.6 146.32) rotate(-45)"/>
  </g>
</svg>