<svg xmlns="http://www.w3.org/2000/svg" viewBox="0 0 64 64"><g data-name="Glyph"><path d="M25 56h-4a1 1 0 0 0 0 2h4a1 1 0 0 0 0-2Z" fill="#ffffff"/><circle cx="29" cy="57" r="1" fill="#ffffff"/><path d="M20.11 62h23.78A4.11 4.11 0 0 0 48 57.89V28a1 1 0 0 0 1-1v-3a1 1 0 0 0-1-1v-4a1 1 0 0 0 1-1v-6a1 1 0 0 0-1-1V6.11A4.11 4.11 0 0 0 43.89 2H20.11A4.11 4.11 0 0 0 16 6.11v51.78A4.11 4.11 0 0 0 20.11 62ZM18 6.11A2.1 2.1 0 0 1 20.11 4h23.78A2.1 2.1 0 0 1 46 6.11v51.78A2.1 2.1 0 0 1 43.89 60H20.11A2.1 2.1 0 0 1 18 57.89Z" fill="#ffffff"/><path d="M21 46h22a1.007 1.007 0 0 0 .98-1.22l-4-18A1.015 1.015 0 0 0 39 26h-3v-3a4 4 0 0 0-8 0v3h-3a1.015 1.015 0 0 0-.98.78l-4 18A1.007 1.007 0 0 0 21 46Zm9-23a2 2 0 0 1 4 0v3h-4Zm-6.2 14h16.4l.44 2H23.36Z" fill="#ffffff"/><circle cx="32" cy="6" r="1" fill="#ffffff"/></g></svg>